<mxfile host="app.diagrams.net" modified="2024-05-17T15:13:52.725Z" agent="Mozilla/5.0 (Windows NT 10.0; Win64; x64) AppleWebKit/537.36 (KHTML, like Gecko) Chrome/124.0.0.0 Safari/537.36 Edg/124.0.0.0" etag="yToBQagE66f1aJbYbUIh" version="24.4.0" type="device">
  <diagram name="Page-1" id="2cc2dc42-3aac-f2a9-1cec-7a8b7cbee084">
    <mxGraphModel dx="2062" dy="1138" grid="1" gridSize="10" guides="1" tooltips="1" connect="1" arrows="1" fold="1" page="1" pageScale="1" pageWidth="827" pageHeight="1169" background="none" math="0" shadow="0">
      <root>
        <mxCell id="0" />
        <mxCell id="1" parent="0" />
        <mxCell id="tlP_V-pG2d8bjTo6rif7-1" value="" style="strokeWidth=1;shadow=0;dashed=0;align=center;html=1;shape=mxgraph.mockup.containers.browserWindow;rSize=0;strokeColor=#67AB9F;strokeColor2=#008cff;strokeColor3=#c4c4c4;mainText=,;recursiveResize=0;" vertex="1" parent="1">
          <mxGeometry x="30" y="90" width="1010" height="1040" as="geometry" />
        </mxCell>
        <mxCell id="tlP_V-pG2d8bjTo6rif7-2" value="Hotel Booking" style="strokeWidth=1;shadow=0;dashed=0;align=center;html=1;shape=mxgraph.mockup.containers.anchor;fontSize=17;fontColor=#666666;align=left;whiteSpace=wrap;" vertex="1" parent="tlP_V-pG2d8bjTo6rif7-1">
          <mxGeometry x="60" y="12" width="110" height="26" as="geometry" />
        </mxCell>
        <mxCell id="tlP_V-pG2d8bjTo6rif7-3" value="www.index.com" style="strokeWidth=1;shadow=0;dashed=0;align=center;html=1;shape=mxgraph.mockup.containers.anchor;rSize=0;fontSize=17;fontColor=#666666;align=left;" vertex="1" parent="tlP_V-pG2d8bjTo6rif7-1">
          <mxGeometry x="130" y="60" width="250" height="26" as="geometry" />
        </mxCell>
        <mxCell id="tlP_V-pG2d8bjTo6rif7-4" value="Menu" style="strokeWidth=1;shadow=0;dashed=0;align=center;html=1;shape=mxgraph.mockup.buttons.button;strokeColor=#666666;fontColor=#ffffff;mainText=;buttonStyle=round;fontSize=17;fontStyle=1;fillColor=#67AB9F;whiteSpace=wrap;" vertex="1" parent="tlP_V-pG2d8bjTo6rif7-1">
          <mxGeometry x="800" y="120" width="150" height="50" as="geometry" />
        </mxCell>
        <mxCell id="tlP_V-pG2d8bjTo6rif7-6" value="" style="verticalLabelPosition=bottom;shadow=0;dashed=0;align=center;html=1;verticalAlign=top;strokeWidth=1;shape=mxgraph.mockup.graphics.simpleIcon;strokeColor=#999999;" vertex="1" parent="tlP_V-pG2d8bjTo6rif7-1">
          <mxGeometry x="10" y="120" width="170" height="50" as="geometry" />
        </mxCell>
        <mxCell id="tlP_V-pG2d8bjTo6rif7-7" value="&lt;b&gt;Logo&lt;/b&gt;" style="text;html=1;align=center;verticalAlign=middle;whiteSpace=wrap;rounded=0;" vertex="1" parent="tlP_V-pG2d8bjTo6rif7-1">
          <mxGeometry x="70" y="130" width="60" height="30" as="geometry" />
        </mxCell>
        <mxCell id="tlP_V-pG2d8bjTo6rif7-8" value="" style="verticalLabelPosition=bottom;shadow=0;dashed=0;align=center;html=1;verticalAlign=top;strokeWidth=1;shape=mxgraph.mockup.graphics.simpleIcon;strokeColor=#999999;" vertex="1" parent="tlP_V-pG2d8bjTo6rif7-1">
          <mxGeometry y="220" width="1010" height="250" as="geometry" />
        </mxCell>
        <mxCell id="tlP_V-pG2d8bjTo6rif7-9" value="&lt;b&gt;Overview of the hotel and its services&lt;/b&gt;" style="text;html=1;align=center;verticalAlign=middle;whiteSpace=wrap;rounded=0;" vertex="1" parent="tlP_V-pG2d8bjTo6rif7-1">
          <mxGeometry x="340" y="334" width="350" height="30" as="geometry" />
        </mxCell>
        <mxCell id="tlP_V-pG2d8bjTo6rif7-10" value="Quick Access to Room Booking Options" style="text;html=1;align=left;verticalAlign=middle;whiteSpace=wrap;rounded=0;" vertex="1" parent="tlP_V-pG2d8bjTo6rif7-1">
          <mxGeometry x="210" y="490" width="400" height="30" as="geometry" />
        </mxCell>
        <mxCell id="tlP_V-pG2d8bjTo6rif7-11" value="View Rooms" style="shape=rectangle;strokeColor=none;fillColor=none;linkText=;fontSize=17;fontColor=#0000ff;fontStyle=4;html=1;align=center;" vertex="1" parent="tlP_V-pG2d8bjTo6rif7-1">
          <mxGeometry x="180" y="580" width="150" height="30" as="geometry" />
        </mxCell>
        <mxCell id="tlP_V-pG2d8bjTo6rif7-12" value="Book a Room" style="shape=rectangle;strokeColor=none;fillColor=none;linkText=;fontSize=17;fontColor=#0000ff;fontStyle=4;html=1;align=center;" vertex="1" parent="tlP_V-pG2d8bjTo6rif7-1">
          <mxGeometry x="380" y="580" width="150" height="30" as="geometry" />
        </mxCell>
        <mxCell id="tlP_V-pG2d8bjTo6rif7-13" value="Guest Profile" style="shape=rectangle;strokeColor=none;fillColor=none;linkText=;fontSize=17;fontColor=#0000ff;fontStyle=4;html=1;align=center;" vertex="1" parent="tlP_V-pG2d8bjTo6rif7-1">
          <mxGeometry x="570" y="580" width="150" height="30" as="geometry" />
        </mxCell>
        <mxCell id="tlP_V-pG2d8bjTo6rif7-14" value="&lt;b style=&quot;font-size: 17px;&quot;&gt;&lt;font style=&quot;font-size: 17px;&quot;&gt;Login&lt;/font&gt;&lt;/b&gt;" style="text;html=1;align=center;verticalAlign=middle;whiteSpace=wrap;rounded=0;fontSize=17;" vertex="1" parent="tlP_V-pG2d8bjTo6rif7-1">
          <mxGeometry x="330" y="690" width="60" height="30" as="geometry" />
        </mxCell>
        <mxCell id="tlP_V-pG2d8bjTo6rif7-15" value="" style="verticalLabelPosition=bottom;shadow=0;dashed=0;align=center;html=1;verticalAlign=top;strokeWidth=1;shape=mxgraph.mockup.forms.splitter;strokeColor=#999999;" vertex="1" parent="tlP_V-pG2d8bjTo6rif7-1">
          <mxGeometry y="650" width="1010" height="10" as="geometry" />
        </mxCell>
        <mxCell id="tlP_V-pG2d8bjTo6rif7-16" value="Username" style="text;html=1;align=center;verticalAlign=middle;whiteSpace=wrap;rounded=0;" vertex="1" parent="tlP_V-pG2d8bjTo6rif7-1">
          <mxGeometry x="210" y="740" width="60" height="30" as="geometry" />
        </mxCell>
        <mxCell id="tlP_V-pG2d8bjTo6rif7-17" value="Password" style="text;html=1;align=center;verticalAlign=middle;whiteSpace=wrap;rounded=0;" vertex="1" parent="tlP_V-pG2d8bjTo6rif7-1">
          <mxGeometry x="210" y="800" width="60" height="30" as="geometry" />
        </mxCell>
        <mxCell id="tlP_V-pG2d8bjTo6rif7-19" value="Login" style="shape=rectangle;strokeColor=none;fillColor=none;linkText=;fontSize=17;fontColor=#0000ff;fontStyle=4;html=1;align=center;" vertex="1" parent="tlP_V-pG2d8bjTo6rif7-1">
          <mxGeometry x="170" y="860" width="130" height="20" as="geometry" />
        </mxCell>
        <mxCell id="tlP_V-pG2d8bjTo6rif7-20" value="Register" style="shape=rectangle;strokeColor=none;fillColor=none;linkText=;fontSize=17;fontColor=#0000ff;fontStyle=4;html=1;align=center;" vertex="1" parent="tlP_V-pG2d8bjTo6rif7-1">
          <mxGeometry x="270" y="860" width="135" height="20" as="geometry" />
        </mxCell>
        <mxCell id="tlP_V-pG2d8bjTo6rif7-21" value="" style="verticalLabelPosition=bottom;shadow=0;dashed=0;align=center;html=1;verticalAlign=top;strokeWidth=1;shape=mxgraph.mockup.markup.line;strokeColor=#999999;" vertex="1" parent="tlP_V-pG2d8bjTo6rif7-1">
          <mxGeometry y="180" width="1010" height="20" as="geometry" />
        </mxCell>
        <mxCell id="tlP_V-pG2d8bjTo6rif7-5" value="&lt;b&gt;&lt;font style=&quot;font-size: 15px;&quot;&gt;Home Page&lt;/font&gt;&lt;/b&gt;" style="text;html=1;align=center;verticalAlign=middle;whiteSpace=wrap;rounded=0;" vertex="1" parent="1">
          <mxGeometry x="20" y="30" width="1000" height="30" as="geometry" />
        </mxCell>
      </root>
    </mxGraphModel>
  </diagram>
</mxfile>
